<?xml version="1.0" standalone="no"?><!DOCTYPE svg PUBLIC "-//W3C//DTD SVG 1.1//EN" "http://www.w3.org/Graphics/SVG/1.1/DTD/svg11.dtd"><svg t="1605343684263" class="icon" viewBox="0 0 1024 1024" version="1.1" xmlns="http://www.w3.org/2000/svg" p-id="1189" width="1024" height="1024" xmlns:xlink="http://www.w3.org/1999/xlink"><defs><style type="text/css"></style></defs><path d="M511.56 512.17m-448.09 0a448.09 448.09 0 1 0 896.18 0 448.09 448.09 0 1 0-896.18 0Z" fill="#A73BF4" p-id="1190"></path><path d="M736.14 174.33m-15.9 0a15.9 15.9 0 1 0 31.8 0 15.9 15.9 0 1 0-31.8 0Z" fill="#FFFFFF" p-id="1191"></path><path d="M147.32 590.36m-11.24 0a11.24 11.24 0 1 0 22.48 0 11.24 11.24 0 1 0-22.48 0Z" fill="#FFFFFF" p-id="1192"></path><path d="M179.28 286.98l-3.61-2.5-4.39-0.17 2.5-3.61 0.16-4.39 3.61 2.51 4.39 0.16-2.5 3.61zM218.06 421.08l-3.61-2.5-4.39-0.16 2.5-3.61 0.16-4.39 3.61 2.5 4.39 0.16-2.5 3.61zM284.52 249.39l-10.44-7.24-12.69-0.47 7.24-10.44 0.47-12.69 10.43 7.24 12.7 0.47-7.24 10.44z" fill="#FFFFFF" p-id="1193"></path><path d="M733.67 442.93c0 140.35-64.69 387.17-215.75 420.72-4.01 0.89-8.16 0.82-12.17-0.08-129.3-29.08-216.29-280.81-216.29-420.64 0-142.12 85.66-147.09 222.68-124.88 129.39-26.48 221.53-17.24 221.53 124.88z" fill="#FF833B" p-id="1194"></path><path d="M512.08 871.78c-2.66 0-5.34-0.3-7.98-0.89-32.13-7.23-63.19-27.64-92.32-60.69-25.58-29.02-48.97-66.81-69.5-112.33-36.64-81.24-60.32-181.31-60.32-254.94 0-55.29 12.88-93.12 39.37-115.66 18.92-16.1 45.13-24.71 80.13-26.32 27.8-1.28 61.93 1.65 110.52 9.47 43.88-8.91 77.64-12.54 106.19-11.41 34.5 1.37 60.85 9.86 80.57 25.95 28.55 23.3 42.43 61.89 42.43 117.96 0 62.84-13.61 162.38-51.81 253.31-28.96 68.94-81.93 155.21-169.81 174.73-2.43 0.55-4.94 0.82-7.47 0.82z m-97.56-556.06c-35.71 0-63.94 6.36-83.47 22.98-22.94 19.52-34.09 53.61-34.09 104.24 0 71.67 23.16 169.32 58.99 248.77 42.24 93.65 96.02 152.09 151.44 164.55 3 0.67 6.08 0.7 8.9 0.07 81.62-18.13 131.64-100.22 159.24-165.9 37.34-88.88 50.64-186.13 50.64-247.5 0-51.28-12.08-86.06-36.92-106.34-31.93-26.06-86.09-29.51-175.61-11.19l-1.35 0.28-1.36-0.22c-36.27-5.88-68.61-9.74-96.41-9.74z" fill="#333333" p-id="1195"></path><path d="M409.138208 321.591776a94.61 44.04 22.061 1 0 33.082276-81.631179 94.61 44.04 22.061 1 0-33.082276 81.631179Z" fill="#00C393" p-id="1196"></path><path d="M470.71 342.42c-19.54 0-42.15-4.84-64.38-13.86-24.41-9.9-45.66-23.72-59.82-38.92-15.54-16.68-21.02-33.44-15.45-47.2 5.58-13.76 21.19-21.97 43.95-23.12 20.76-1.05 45.63 3.82 70.04 13.71s45.66 23.72 59.82 38.92c15.54 16.68 21.02 33.44 15.45 47.2-5.58 13.76-21.19 21.97-43.95 23.12-1.85 0.11-3.74 0.15-5.66 0.15z m-89.97-108.24c-1.69 0-3.34 0.04-4.97 0.12-16.36 0.83-27.59 5.85-30.81 13.78s1.35 19.35 12.52 31.34c12.71 13.64 32.05 26.15 54.48 35.25 47.57 19.28 87.96 14.87 94.45-1.14 6.49-16.02-19.43-47.3-67-66.58-20.46-8.31-41.08-12.77-58.67-12.77z" fill="#333333" p-id="1197"></path><path d="M524.822072 326.855592a44.04 94.61 30 1 0 94.61-163.869327 44.04 94.61 30 1 0-94.61 163.869327Z" fill="#FF4891" p-id="1198"></path><path d="M536.35 337.28c-5.57 0-10.71-1.31-15.28-3.95-12.86-7.42-18.84-24.02-16.83-46.72 1.83-20.7 10.08-44.66 23.25-67.48 13.17-22.81 29.79-41.95 46.81-53.88 18.66-13.09 36.02-16.2 48.88-8.78s18.84 24.02 16.83 46.72c-1.83 20.7-10.08 44.66-23.25 67.48-13.17 22.81-29.79 41.95-46.81 53.88-12.02 8.43-23.51 12.73-33.6 12.73z m71.49-169.73c-6.89 0-15.55 3.42-24.93 9.99-15.26 10.7-30.33 28.14-42.43 49.09s-19.67 42.73-21.3 61.29c-1.44 16.32 1.98 28.14 9.39 32.41 7.41 4.28 19.35 1.33 32.77-8.07 15.26-10.7 30.33-28.14 42.43-49.09 25.67-44.46 26.88-85.06 11.91-93.71-2.23-1.28-4.87-1.91-7.84-1.91z" fill="#333333" p-id="1199"></path><path d="M444.23 315.54c-45.05-18.26-75.27-48.62-67.5-67.8 2.81-6.94 10.21-11.46 20.65-13.55-26.82-3.88-47.78 0.69-53 13.55-7.78 19.18 22.44 49.54 67.5 67.8 28.76 11.66 56.6 15.57 75.01 11.88-13.2-1.91-27.81-5.86-42.66-11.88zM586.97 223.97a6.396 6.396 0 0 1-2.34-8.74l11.35-19.66a6.396 6.396 0 0 1 8.74-2.34 6.396 6.396 0 0 1 2.34 8.74l-11.35 19.66c-1.76 3.06-5.67 4.11-8.74 2.34zM676.92 496.31a7.498 7.498 0 0 1-7-10.2c15.96-41.4 5.91-85.59-23.88-105.09-19.89-13.01-42.92-10.75-54.88-8.25a7.505 7.505 0 0 1-8.88-5.8 7.505 7.505 0 0 1 5.8-8.88c14.23-2.98 41.75-5.6 66.17 10.38 35.67 23.34 48.14 75.09 29.66 123.04-1.13 2.97-3.97 4.8-6.99 4.8zM495.36 843.15c-1.79 0-3.58-0.63-5.01-1.92-33.48-30.09-62.88-64.26-87.38-101.55-41.49-63.15-68.51-133.85-80.29-210.15a7.503 7.503 0 1 1 14.83-2.29c11.45 74.16 37.69 142.86 78 204.2 23.8 36.22 52.35 69.41 84.87 98.63a7.498 7.498 0 0 1 0.56 10.59 7.48 7.48 0 0 1-5.58 2.49z" fill="#FFFFFF" p-id="1200"></path></svg>